# xmcd CD database file
#
# Track frame offsets:
#	150
#	19115
#	40202
#	57797
#	73526
#	92131
#	104268
#	120768
#	136633
#	153563
#	174093
#	195363
#	213684
#	232191
#	246511
#	268196
#
# Disc length: 3833 seconds
#
# Revision: 1
# Processed by: cddbd v1.5PL3 Copyright (c) Steve Scherf et al.
# Submitted via: Feurio! 1.67 - http://www.feurio.com
#
DISCID=d80ef710
DTITLE=Various Artist - DA BLUES    BACK IN THE DAY
DYEAR=1900
DGENRE=
TTITLE0=WILLIE ACE CLAYTON - THREE PEOPLE SLEEPIN' IN MY BED
TTITLE1=BOBBY BLUE BLAND - PUTTIN' SOMETHING IN MY FOOD
TTITLE2=JOHNNIE TAYLOR - GOOD LOVE
TTITLE3=RAY CHARLES - RIGHT TIME
TTITLE4=BUDDY ACE - LOVE ON MINE
TTITLE5=DENISE LASALLE - TRAPPED BY THIS THING CALLED LOVE
TTITLE6=ZZ HILL - SOMEONE ELSE STEPPIN IN
TTITLE7=ZZ HILL - BUMP and GRIND
TTITLE8=TYRONE DAVIS - KISS YOU
TTITLE9=LOVE DOCTOR - SLOW ROLL IT
TTITLE10=SIR CHARLES - ANY BODY LONELY
TTITLE11=JOHNNIE TAYLOR - GETTING CARELESS WITH OUR LOVE
TTITLE12=SOLO - WHERE YOU WANT ME TO PUT IT
TTITLE13=HALL and OATS - SARAH SMILE
TTITLE14=THE TEMPTATIONS - STAY
TTITLE15=JOHNNIE TAYLOR - JUST BECAUSE
EXTD=
EXTT0=
EXTT1=
EXTT2=
EXTT3=
EXTT4=
EXTT5=
EXTT6=
EXTT7=
EXTT8=
EXTT9=
EXTT10=
EXTT11=
EXTT12=
EXTT13=
EXTT14=
EXTT15=
PLAYORDER=
